<?xml version="1.0" encoding="UTF-8" standalone="no"?>
<!-- Created with Inkscape (http://www.inkscape.org/) -->

<svg
   xmlns:dc="http://purl.org/dc/elements/1.1/"
   xmlns:cc="http://creativecommons.org/ns#"
   xmlns:rdf="http://www.w3.org/1999/02/22-rdf-syntax-ns#"
   xmlns:svg="http://www.w3.org/2000/svg"
   xmlns="http://www.w3.org/2000/svg"
   xmlns:sodipodi="http://sodipodi.sourceforge.net/DTD/sodipodi-0.dtd"
   xmlns:inkscape="http://www.inkscape.org/namespaces/inkscape"
   width="95.779167mm"
   height="79.771873mm"
   viewBox="0 0 95.779167 79.771873"
   version="1.1"
   id="svg836"
   inkscape:version="0.92.4 (5da689c313, 2019-01-14)"
   sodipodi:docname="00_function.svg"
   inkscape:export-filename="C:\projects\CodeKata_Numerics_RootfindingWithSecant\visuals\00_function.png"
   inkscape:export-xdpi="199.96021"
   inkscape:export-ydpi="199.96021">
  <defs
     id="defs830">
    <marker
       inkscape:stockid="Arrow1Lend"
       orient="auto"
       refY="0.0"
       refX="0.0"
       id="Arrow1Lend"
       style="overflow:visible;"
       inkscape:isstock="true">
      <path
         id="path1456"
         d="M 0.0,0.0 L 5.0,-5.0 L -12.5,0.0 L 5.0,5.0 L 0.0,0.0 z "
         style="fill-rule:evenodd;stroke:#000000;stroke-width:1pt;stroke-opacity:1;fill:#000000;fill-opacity:1"
         transform="scale(0.8) rotate(180) translate(12.5,0)" />
    </marker>
  </defs>
  <sodipodi:namedview
     id="base"
     pagecolor="#ffffff"
     bordercolor="#666666"
     borderopacity="1.0"
     inkscape:pageopacity="0.0"
     inkscape:pageshadow="2"
     inkscape:zoom="2.8"
     inkscape:cx="62.190886"
     inkscape:cy="187.00581"
     inkscape:document-units="mm"
     inkscape:current-layer="layer1"
     showgrid="false"
     fit-margin-top="0"
     fit-margin-left="0"
     fit-margin-right="0"
     fit-margin-bottom="0"
     inkscape:window-width="2560"
     inkscape:window-height="1377"
     inkscape:window-x="-8"
     inkscape:window-y="-8"
     inkscape:window-maximized="1" />
  <metadata
     id="metadata833">
    <rdf:RDF>
      <cc:Work
         rdf:about="">
        <dc:format>image/svg+xml</dc:format>
        <dc:type
           rdf:resource="http://purl.org/dc/dcmitype/StillImage" />
        <dc:title />
      </cc:Work>
    </rdf:RDF>
  </metadata>
  <g
     inkscape:label="Ebene 1"
     inkscape:groupmode="layer"
     id="layer1"
     transform="translate(-59.886688,-62.926014)">
    <path
       id="path1446"
       title="x**2-4"
       d="m 80.82447,65.560988 c 0.638528,3.575883 1.277056,7.023678 1.915583,10.34415 0.638528,3.320472 1.277056,6.512856 1.915584,9.577917 0.638527,3.065061 1.277055,6.002033 1.915583,8.811683 0.638528,2.80965 1.277056,5.491211 1.915583,8.045452 0.638528,2.55424 1.277056,4.98039 1.915584,7.27921 0.638527,2.29883 1.277055,4.46957 1.915583,6.51299 0.638528,2.04341 1.277056,3.95874 1.915583,5.74675 0.638528,1.788 1.277056,3.44792 1.915584,4.98052 0.638527,1.53259 1.277055,2.9371 1.915583,4.21428 0.638528,1.27718 1.277056,2.42628 1.915583,3.44805 0.638527,1.02177 1.277057,1.91545 1.915587,2.68182 0.63852,0.76636 1.27705,1.40463 1.91558,1.91558 0.63853,0.51095 1.27706,0.89381 1.91558,1.14935 0.63853,0.25554 1.27706,0.38299 1.91559,0.38312 0.63852,1.2e-4 1.27705,-0.12784 1.91558,-0.38312 0.63853,-0.25528 1.27706,-0.63866 1.91558,-1.14935 0.63853,-0.5107 1.27706,-1.14948 1.91559,-1.91558 0.63852,-0.76611 1.27705,-1.6603 1.91558,-2.68182 0.63853,-1.02152 1.27706,-2.17112 1.91558,-3.44805 0.63853,-1.27693 1.27706,-2.68195 1.91559,-4.21428 0.63852,-1.53234 1.27705,-3.19277 1.91558,-4.98052 0.63853,-1.78775 1.27706,-3.70359 1.91558,-5.74675 0.63853,-2.04316 1.27706,-4.21441 1.91559,-6.51299 0.63852,-2.29857 1.27705,-4.72523 1.91558,-7.27921 0.63853,-2.553985 1.27706,-5.236057 1.91558,-8.045452 0.63853,-2.809394 1.27706,-5.746877 1.91559,-8.811683 0.63852,-3.064806 1.27705,-6.2577 1.91558,-9.577917 0.63853,-3.320217 1.27706,-6.768522 1.91558,-10.34415"
       style="opacity:1;vector-effect:none;fill:none;fill-opacity:1;stroke:#000000;stroke-width:0.26499999;stroke-linecap:butt;stroke-linejoin:miter;stroke-miterlimit:4;stroke-dasharray:none;stroke-dashoffset:0;stroke-opacity:1"
       inkscape:connector-curvature="0"
       sodipodi:nodetypes="cssssccccsscsccsccsccsccsccsc" />
    <path
       style="fill:none;stroke:#000000;stroke-width:0.265;stroke-linecap:butt;stroke-linejoin:miter;stroke-opacity:1;stroke-miterlimit:4;stroke-dasharray:none;marker-end:url(#Arrow1Lend)"
       d="M 62.910497,105.9397 H 146.44324"
       id="path1451"
       inkscape:connector-curvature="0" />
  </g>
</svg>
